<svg width="368" height="176" viewBox="0 0 368 176" fill="none" xmlns="http://www.w3.org/2000/svg">
<rect width="368" height="176" fill="#3D3D3D"/>
<path d="M184.666 97.9999H130.666V55.3333H98.6665M184.666 97.9999V65.3333H216.666V22.6666M184.666 97.9999V160.667M184.666 97.9999H270M66.6665 55.3333H98.6665M98.6665 55.3333V33.9999M184.666 160.667H130.666M184.666 160.667H237.333M270 97.9999V75.9999H300.666M270 97.9999V128.667H290.666" stroke="#BEBEBE" stroke-width="1.32581" stroke-linecap="round" stroke-linejoin="round" stroke-dasharray="3.98 3.98"/>
<circle cx="184" cy="97.3332" r="24" fill="#282828"/>
<g clip-path="url(#clip0)">
<mask id="mask0" mask-type="alpha" maskUnits="userSpaceOnUse" x="169" y="83" width="28" height="29">
<path d="M185.845 91.2769C185.579 88.9188 184.407 88.2938 184.407 88.2938H176.949C176.949 88.2938 178.068 89.7854 178.068 92.2713C178.068 93.032 177.963 93.6997 177.818 94.26" stroke="black" stroke-width="1.98871"/>
<path d="M184.904 94.2599H171.978C171.978 94.2599 174.091 96 174.091 101.22C174.091 106.441 171.978 108.181 171.978 108.181H182.71" stroke="black" stroke-width="1.98871"/>
<path d="M180.927 110.374C186.555 105.463 185.523 95.5965 184.304 91.2769H191.058C196.236 100.007 196.045 104.168 195.279 110.374H180.927Z" stroke="black" stroke-width="1.98871"/>
<path d="M178.938 83.322H173.966L175.209 84.8136L173.966 86.3051H178.938V83.322Z" fill="black"/>
<path d="M178.938 83.322V88.2938" stroke="black" stroke-width="1.98871"/>
</mask>
<g mask="url(#mask0)">
<rect x="168" y="81.3333" width="31.8194" height="31.8194" fill="url(#paint0_linear)"/>
</g>
</g>
<path d="M221.333 98L226.667 94.6666V101.333L221.333 98Z" fill="black" stroke="black" stroke-width="1.32581" stroke-linecap="round" stroke-linejoin="round"/>
<path d="M85.3335 55.3332L80.0002 58.6665V51.9998L85.3335 55.3332Z" fill="black" stroke="black" stroke-width="1.32581" stroke-linecap="round" stroke-linejoin="round"/>
<path d="M125.333 55.3332L120 58.6665V51.9998L125.333 55.3332Z" fill="black" stroke="black" stroke-width="1.32581" stroke-linecap="round" stroke-linejoin="round"/>
<path d="M130.667 84L127.333 78.6667H134L130.667 84Z" fill="black" stroke="black" stroke-width="1.32581" stroke-linecap="round" stroke-linejoin="round"/>
<path d="M184.667 132L181.333 126.667H188L184.667 132Z" fill="#BB8EFF" stroke="#BB8EFF" stroke-width="1.32581" stroke-linecap="round" stroke-linejoin="round"/>
<path d="M216.667 37.3331L213.333 42.6665H220L216.667 37.3331Z" fill="#BB8EFF" stroke="#BB8EFF" stroke-width="1.32581" stroke-linecap="round" stroke-linejoin="round"/>
<path d="M203.333 65.3333L198 62V68.6667L203.333 65.3333Z" fill="#BB8EFF" stroke="#BB8EFF" stroke-width="1.32581" stroke-linecap="round" stroke-linejoin="round"/>
<path d="M184.667 156L181.333 150.667H188L184.667 156Z" fill="#BB8EFF" stroke="#BB8EFF" stroke-width="1.32581" stroke-linecap="round" stroke-linejoin="round"/>
<path d="M158.134 160.666L163.467 157.333V164L158.134 160.666Z" fill="#BB8EFF" stroke="#BB8EFF" stroke-width="1.32581" stroke-linecap="round" stroke-linejoin="round"/>
<path d="M210.667 160.666L205.333 164V157.333L210.667 160.666Z" fill="#BB8EFF" stroke="#BB8EFF" stroke-width="1.32581" stroke-linecap="round" stroke-linejoin="round"/>
<path d="M244 98L249.333 94.6666V101.333L244 98Z" fill="black" stroke="black" stroke-width="1.32581" stroke-linecap="round" stroke-linejoin="round"/>
<path d="M270 86.6666L266.667 81.3333H273.333L270 86.6666Z" fill="black" stroke="black" stroke-width="1.32581" stroke-linecap="round" stroke-linejoin="round"/>
<path d="M290 76L295.333 72.6666V79.3333L290 76Z" fill="black" stroke="black" stroke-width="1.32581" stroke-linecap="round" stroke-linejoin="round"/>
<path d="M270 118.667L273.333 124H266.667L270 118.667Z" fill="black" stroke="black" stroke-width="1.32581" stroke-linecap="round" stroke-linejoin="round"/>
<g clip-path="url(#clip1)">
<mask id="mask1" mask-type="alpha" maskUnits="userSpaceOnUse" x="303" y="70" width="13" height="12">
<path d="M309.334 70.1665C306.112 70.1665 303.5 72.7782 303.5 75.9998C303.5 79.2215 306.112 81.8332 309.334 81.8332C312.555 81.8332 315.167 79.2215 315.167 75.9998C315.167 74.4527 314.553 72.969 313.459 71.875C312.365 70.7811 310.881 70.1665 309.334 70.1665ZM306.834 80.3248V79.4915C306.793 78.7586 307.351 78.1301 308.084 78.0832H310.584C311.318 78.1301 311.877 78.7612 311.834 79.4957V80.329C310.289 81.2308 308.378 81.2308 306.834 80.329V80.3248ZM312.667 79.7165V79.4623C312.693 78.2798 311.766 77.295 310.584 77.2498H308.084C306.902 77.295 305.975 78.2798 306 79.4623V79.7207C304.455 78.3386 303.923 76.1464 304.663 74.2098C305.403 72.2732 307.261 70.9939 309.334 70.9939C311.407 70.9939 313.265 72.2732 314.005 74.2098C314.744 76.1464 314.212 78.3386 312.667 79.7207V79.7165ZM309.334 72.2498C308.183 72.2498 307.25 73.1826 307.25 74.3332C307.25 75.4838 308.183 76.4165 309.334 76.4165C310.484 76.4165 311.417 75.4838 311.417 74.3332C311.417 73.7806 311.198 73.2507 310.807 72.86C310.416 72.4693 309.886 72.2498 309.334 72.2498ZM309.334 75.5832C308.643 75.5832 308.084 75.0235 308.084 74.3332C308.084 73.6428 308.643 73.0832 309.334 73.0832C310.024 73.0832 310.584 73.6428 310.584 74.3332C310.584 74.6647 310.452 74.9826 310.218 75.217C309.983 75.4515 309.665 75.5832 309.334 75.5832Z" fill="white"/>
</mask>
<g mask="url(#mask1)">
<path d="M309.334 70.1665C306.112 70.1665 303.5 72.7782 303.5 75.9998C303.5 79.2215 306.112 81.8332 309.334 81.8332C312.555 81.8332 315.167 79.2215 315.167 75.9998C315.167 74.4527 314.553 72.969 313.459 71.875C312.365 70.7811 310.881 70.1665 309.334 70.1665ZM306.834 80.3248V79.4915C306.793 78.7586 307.351 78.1301 308.084 78.0832H310.584C311.318 78.1301 311.877 78.7612 311.834 79.4957V80.329C310.289 81.2308 308.378 81.2308 306.834 80.329V80.3248ZM312.667 79.7165V79.4623C312.693 78.2798 311.766 77.295 310.584 77.2498H308.084C306.902 77.295 305.975 78.2798 306 79.4623V79.7207C304.455 78.3386 303.923 76.1464 304.663 74.2098C305.403 72.2732 307.261 70.9939 309.334 70.9939C311.407 70.9939 313.265 72.2732 314.005 74.2098C314.744 76.1464 314.212 78.3386 312.667 79.7207V79.7165ZM309.334 72.2498C308.183 72.2498 307.25 73.1826 307.25 74.3332C307.25 75.4838 308.183 76.4165 309.334 76.4165C310.484 76.4165 311.417 75.4838 311.417 74.3332C311.417 73.7806 311.198 73.2507 310.807 72.86C310.416 72.4693 309.886 72.2498 309.334 72.2498ZM309.334 75.5832C308.643 75.5832 308.084 75.0235 308.084 74.3332C308.084 73.6428 308.643 73.0832 309.334 73.0832C310.024 73.0832 310.584 73.6428 310.584 74.3332C310.584 74.6647 310.452 74.9826 310.218 75.217C309.983 75.4515 309.665 75.5832 309.334 75.5832Z" fill="#F3F3F3"/>
</g>
</g>
<mask id="mask2" mask-type="alpha" maskUnits="userSpaceOnUse" x="210" y="8" width="13" height="13">
<path d="M216.667 8.83337C213.445 8.83337 210.833 11.445 210.833 14.6667C210.833 17.8884 213.445 20.5 216.667 20.5C219.888 20.5 222.5 17.8884 222.5 14.6667C222.5 13.1196 221.886 11.6359 220.792 10.5419C219.698 9.44796 218.214 8.83337 216.667 8.83337ZM214.167 18.9917V18.1584C214.126 17.4255 214.684 16.7969 215.417 16.75H217.917C218.651 16.7969 219.21 17.428 219.167 18.1625V18.9959C217.622 19.8977 215.711 19.8977 214.167 18.9959V18.9917ZM220 18.3834V18.1292C220.026 16.9467 219.099 15.9619 217.917 15.9167H215.417C214.235 15.9619 213.308 16.9467 213.333 18.1292V18.3875C211.788 17.0055 211.256 14.8133 211.996 12.8766C212.736 10.94 214.594 9.66076 216.667 9.66076C218.74 9.66076 220.598 10.94 221.338 12.8766C222.077 14.8133 221.545 17.0055 220 18.3875V18.3834ZM216.667 10.9167C215.516 10.9167 214.583 11.8494 214.583 13C214.583 14.1506 215.516 15.0834 216.667 15.0834C217.817 15.0834 218.75 14.1506 218.75 13C218.75 12.4475 218.531 11.9176 218.14 11.5269C217.749 11.1362 217.219 10.9167 216.667 10.9167ZM216.667 14.25C215.976 14.25 215.417 13.6904 215.417 13C215.417 12.3097 215.976 11.75 216.667 11.75C217.357 11.75 217.917 12.3097 217.917 13C217.917 13.3316 217.785 13.6495 217.551 13.8839C217.316 14.1183 216.998 14.25 216.667 14.25Z" fill="white"/>
</mask>
<g mask="url(#mask2)">
<path d="M216.667 8.83337C213.445 8.83337 210.833 11.445 210.833 14.6667C210.833 17.8884 213.445 20.5 216.667 20.5C219.888 20.5 222.5 17.8884 222.5 14.6667C222.5 13.1196 221.886 11.6359 220.792 10.5419C219.698 9.44796 218.214 8.83337 216.667 8.83337ZM214.167 18.9917V18.1584C214.126 17.4255 214.684 16.7969 215.417 16.75H217.917C218.651 16.7969 219.21 17.428 219.167 18.1625V18.9959C217.622 19.8977 215.711 19.8977 214.167 18.9959V18.9917ZM220 18.3834V18.1292C220.026 16.9467 219.099 15.9619 217.917 15.9167H215.417C214.235 15.9619 213.308 16.9467 213.333 18.1292V18.3875C211.788 17.0055 211.256 14.8133 211.996 12.8766C212.736 10.94 214.594 9.66076 216.667 9.66076C218.74 9.66076 220.598 10.94 221.338 12.8766C222.077 14.8133 221.545 17.0055 220 18.3875V18.3834ZM216.667 10.9167C215.516 10.9167 214.583 11.8494 214.583 13C214.583 14.1506 215.516 15.0834 216.667 15.0834C217.817 15.0834 218.75 14.1506 218.75 13C218.75 12.4475 218.531 11.9176 218.14 11.5269C217.749 11.1362 217.219 10.9167 216.667 10.9167ZM216.667 14.25C215.976 14.25 215.417 13.6904 215.417 13C215.417 12.3097 215.976 11.75 216.667 11.75C217.357 11.75 217.917 12.3097 217.917 13C217.917 13.3316 217.785 13.6495 217.551 13.8839C217.316 14.1183 216.998 14.25 216.667 14.25Z" fill="#F3F3F3"/>
</g>
<g clip-path="url(#clip2)">
<mask id="mask3" mask-type="alpha" maskUnits="userSpaceOnUse" x="92" y="19" width="13" height="13">
<path d="M98.6668 19.5001C95.4452 19.5001 92.8335 22.1118 92.8335 25.3334C92.8335 28.5551 95.4452 31.1668 98.6668 31.1668C101.888 31.1668 104.5 28.5551 104.5 25.3334C104.5 23.7864 103.886 22.3026 102.792 21.2087C101.698 20.1147 100.214 19.5001 98.6668 19.5001ZM96.1668 29.6584V28.8251C96.1265 28.0922 96.6843 27.4637 97.4168 27.4168H99.9168C100.651 27.4637 101.21 28.0948 101.167 28.8293V29.6626C99.6222 30.5645 97.7115 30.5645 96.1668 29.6626V29.6584ZM102 29.0501V28.7959C102.026 27.6134 101.099 26.6287 99.9168 26.5834H97.4168C96.2349 26.6287 95.3076 27.6134 95.3335 28.7959V29.0543C93.7883 27.6722 93.2562 25.48 93.996 23.5434C94.7357 21.6068 96.5937 20.3275 98.6668 20.3275C100.74 20.3275 102.598 21.6068 103.338 23.5434C104.077 25.48 103.545 27.6722 102 29.0543V29.0501ZM98.6668 21.5835C97.5162 21.5835 96.5835 22.5162 96.5835 23.6668C96.5835 24.8174 97.5162 25.7501 98.6668 25.7501C99.8174 25.7501 100.75 24.8174 100.75 23.6668C100.75 23.1143 100.531 22.5843 100.14 22.1936C99.7493 21.8029 99.2194 21.5835 98.6668 21.5835ZM98.6668 24.9168C97.9765 24.9168 97.4168 24.3571 97.4168 23.6668C97.4168 22.9764 97.9765 22.4168 98.6668 22.4168C99.3572 22.4168 99.9168 22.9764 99.9168 23.6668C99.9168 23.9983 99.7851 24.3162 99.5507 24.5507C99.3163 24.7851 98.9983 24.9168 98.6668 24.9168Z" fill="white"/>
</mask>
<g mask="url(#mask3)">
<path d="M98.6668 19.5001C95.4452 19.5001 92.8335 22.1118 92.8335 25.3334C92.8335 28.5551 95.4452 31.1668 98.6668 31.1668C101.888 31.1668 104.5 28.5551 104.5 25.3334C104.5 23.7864 103.886 22.3026 102.792 21.2087C101.698 20.1147 100.214 19.5001 98.6668 19.5001ZM96.1668 29.6584V28.8251C96.1265 28.0922 96.6843 27.4637 97.4168 27.4168H99.9168C100.651 27.4637 101.21 28.0948 101.167 28.8293V29.6626C99.6222 30.5645 97.7115 30.5645 96.1668 29.6626V29.6584ZM102 29.0501V28.7959C102.026 27.6134 101.099 26.6287 99.9168 26.5834H97.4168C96.2349 26.6287 95.3076 27.6134 95.3335 28.7959V29.0543C93.7883 27.6722 93.2562 25.48 93.996 23.5434C94.7357 21.6068 96.5937 20.3275 98.6668 20.3275C100.74 20.3275 102.598 21.6068 103.338 23.5434C104.077 25.48 103.545 27.6722 102 29.0543V29.0501ZM98.6668 21.5835C97.5162 21.5835 96.5835 22.5162 96.5835 23.6668C96.5835 24.8174 97.5162 25.7501 98.6668 25.7501C99.8174 25.7501 100.75 24.8174 100.75 23.6668C100.75 23.1143 100.531 22.5843 100.14 22.1936C99.7493 21.8029 99.2194 21.5835 98.6668 21.5835ZM98.6668 24.9168C97.9765 24.9168 97.4168 24.3571 97.4168 23.6668C97.4168 22.9764 97.9765 22.4168 98.6668 22.4168C99.3572 22.4168 99.9168 22.9764 99.9168 23.6668C99.9168 23.9983 99.7851 24.3162 99.5507 24.5507C99.3163 24.7851 98.9983 24.9168 98.6668 24.9168Z" fill="#F3F3F3"/>
</g>
</g>
<path d="M57.8333 49.3334C54.6117 49.3334 52 51.945 52 55.1667C52 58.3884 54.6117 61 57.8333 61C61.055 61 63.6667 58.3884 63.6667 55.1667C63.6667 53.6196 63.0521 52.1359 61.9581 51.0419C60.8642 49.948 59.3804 49.3334 57.8333 49.3334ZM55.3333 59.4917V58.6584C55.293 57.9255 55.8508 57.2969 56.5833 57.25H59.0833C59.8176 57.2969 60.3761 57.928 60.3333 58.6625V59.4959C58.7887 60.3977 56.878 60.3977 55.3333 59.4959V59.4917ZM61.1667 58.8834V58.6292C61.1925 57.4467 60.2653 56.4619 59.0833 56.4167H56.5833C55.4014 56.4619 54.4741 57.4467 54.5 58.6292V58.8875C52.9548 57.5055 52.4228 55.3133 53.1625 53.3766C53.9022 51.44 55.7602 50.1608 57.8333 50.1608C59.9064 50.1608 61.7645 51.44 62.5042 53.3766C63.2439 55.3133 62.7118 57.5055 61.1667 58.8875V58.8834ZM57.8333 51.4167C56.6827 51.4167 55.75 52.3494 55.75 53.5C55.75 54.6506 56.6827 55.5834 57.8333 55.5834C58.9839 55.5834 59.9167 54.6506 59.9167 53.5C59.9167 52.9475 59.6972 52.4176 59.3065 52.0269C58.9158 51.6362 58.3859 51.4167 57.8333 51.4167ZM57.8333 54.75C57.143 54.75 56.5833 54.1904 56.5833 53.5C56.5833 52.8097 57.143 52.25 57.8333 52.25C58.5237 52.25 59.0833 52.8097 59.0833 53.5C59.0833 53.8316 58.9516 54.1495 58.7172 54.3839C58.4828 54.6183 58.1648 54.75 57.8333 54.75Z" fill="#F3F3F3"/>
<g clip-path="url(#clip3)">
<mask id="mask4" mask-type="alpha" maskUnits="userSpaceOnUse" x="240" y="155" width="13" height="13">
<path d="M246.666 155.5C243.445 155.5 240.833 158.111 240.833 161.333C240.833 164.555 243.445 167.166 246.666 167.166C249.888 167.166 252.5 164.555 252.5 161.333C252.5 159.786 251.885 158.302 250.791 157.208C249.697 156.114 248.213 155.5 246.666 155.5ZM244.166 165.658V164.825C244.126 164.092 244.684 163.463 245.416 163.416H247.916C248.651 163.463 249.209 164.094 249.166 164.829V165.662C247.622 166.564 245.711 166.564 244.166 165.662V165.658ZM250 165.05V164.796C250.026 163.613 249.098 162.628 247.916 162.583H245.416C244.234 162.628 243.307 163.613 243.333 164.796V165.054C241.788 163.672 241.256 161.48 241.995 159.543C242.735 157.606 244.593 156.327 246.666 156.327C248.739 156.327 250.597 157.606 251.337 159.543C252.077 161.48 251.545 163.672 250 165.054V165.05ZM246.666 157.583C245.516 157.583 244.583 158.516 244.583 159.666C244.583 160.817 245.516 161.75 246.666 161.75C247.817 161.75 248.75 160.817 248.75 159.666C248.75 159.114 248.53 158.584 248.139 158.193C247.749 157.803 247.219 157.583 246.666 157.583ZM246.666 160.916C245.976 160.916 245.416 160.357 245.416 159.666C245.416 158.976 245.976 158.416 246.666 158.416C247.357 158.416 247.916 158.976 247.916 159.666C247.916 159.998 247.785 160.316 247.55 160.55C247.316 160.785 246.998 160.916 246.666 160.916Z" fill="white"/>
</mask>
<g mask="url(#mask4)">
<path d="M246.666 155.5C243.445 155.5 240.833 158.111 240.833 161.333C240.833 164.555 243.445 167.166 246.666 167.166C249.888 167.166 252.5 164.555 252.5 161.333C252.5 159.786 251.885 158.302 250.791 157.208C249.697 156.114 248.213 155.5 246.666 155.5ZM244.166 165.658V164.825C244.126 164.092 244.684 163.463 245.416 163.416H247.916C248.651 163.463 249.209 164.094 249.166 164.829V165.662C247.622 166.564 245.711 166.564 244.166 165.662V165.658ZM250 165.05V164.796C250.026 163.613 249.098 162.628 247.916 162.583H245.416C244.234 162.628 243.307 163.613 243.333 164.796V165.054C241.788 163.672 241.256 161.48 241.995 159.543C242.735 157.606 244.593 156.327 246.666 156.327C248.739 156.327 250.597 157.606 251.337 159.543C252.077 161.48 251.545 163.672 250 165.054V165.05ZM246.666 157.583C245.516 157.583 244.583 158.516 244.583 159.666C244.583 160.817 245.516 161.75 246.666 161.75C247.817 161.75 248.75 160.817 248.75 159.666C248.75 159.114 248.53 158.584 248.139 158.193C247.749 157.803 247.219 157.583 246.666 157.583ZM246.666 160.916C245.976 160.916 245.416 160.357 245.416 159.666C245.416 158.976 245.976 158.416 246.666 158.416C247.357 158.416 247.916 158.976 247.916 159.666C247.916 159.998 247.785 160.316 247.55 160.55C247.316 160.785 246.998 160.916 246.666 160.916Z" fill="#F3F3F3"/>
</g>
</g>
<g clip-path="url(#clip4)">
<mask id="mask5" mask-type="alpha" maskUnits="userSpaceOnUse" x="115" y="155" width="13" height="13">
<path d="M121.333 155.5C118.111 155.5 115.5 158.111 115.5 161.333C115.5 164.555 118.111 167.166 121.333 167.166C124.554 167.166 127.166 164.555 127.166 161.333C127.166 159.786 126.552 158.302 125.458 157.208C124.364 156.114 122.88 155.5 121.333 155.5ZM118.833 165.658V164.825C118.792 164.092 119.35 163.463 120.083 163.416H122.583C123.317 163.463 123.876 164.094 123.833 164.829V165.662C122.288 166.564 120.378 166.564 118.833 165.662V165.658ZM124.666 165.05V164.796C124.692 163.613 123.765 162.628 122.583 162.583H120.083C118.901 162.628 117.974 163.613 118 164.796V165.054C116.454 163.672 115.922 161.48 116.662 159.543C117.402 157.606 119.26 156.327 121.333 156.327C123.406 156.327 125.264 157.606 126.004 159.543C126.743 161.48 126.211 163.672 124.666 165.054V165.05ZM121.333 157.583C120.182 157.583 119.25 158.516 119.25 159.666C119.25 160.817 120.182 161.75 121.333 161.75C122.483 161.75 123.416 160.817 123.416 159.666C123.416 159.114 123.197 158.584 122.806 158.193C122.415 157.803 121.885 157.583 121.333 157.583ZM121.333 160.916C120.642 160.916 120.083 160.357 120.083 159.666C120.083 158.976 120.642 158.416 121.333 158.416C122.023 158.416 122.583 158.976 122.583 159.666C122.583 159.998 122.451 160.316 122.217 160.55C121.982 160.785 121.664 160.916 121.333 160.916Z" fill="white"/>
</mask>
<g mask="url(#mask5)">
<path d="M121.333 155.5C118.111 155.5 115.5 158.111 115.5 161.333C115.5 164.555 118.111 167.166 121.333 167.166C124.554 167.166 127.166 164.555 127.166 161.333C127.166 159.786 126.552 158.302 125.458 157.208C124.364 156.114 122.88 155.5 121.333 155.5ZM118.833 165.658V164.825C118.792 164.092 119.35 163.463 120.083 163.416H122.583C123.317 163.463 123.876 164.094 123.833 164.829V165.662C122.288 166.564 120.378 166.564 118.833 165.662V165.658ZM124.666 165.05V164.796C124.692 163.613 123.765 162.628 122.583 162.583H120.083C118.901 162.628 117.974 163.613 118 164.796V165.054C116.454 163.672 115.922 161.48 116.662 159.543C117.402 157.606 119.26 156.327 121.333 156.327C123.406 156.327 125.264 157.606 126.004 159.543C126.743 161.48 126.211 163.672 124.666 165.054V165.05ZM121.333 157.583C120.182 157.583 119.25 158.516 119.25 159.666C119.25 160.817 120.182 161.75 121.333 161.75C122.483 161.75 123.416 160.817 123.416 159.666C123.416 159.114 123.197 158.584 122.806 158.193C122.415 157.803 121.885 157.583 121.333 157.583ZM121.333 160.916C120.642 160.916 120.083 160.357 120.083 159.666C120.083 158.976 120.642 158.416 121.333 158.416C122.023 158.416 122.583 158.976 122.583 159.666C122.583 159.998 122.451 160.316 122.217 160.55C121.982 160.785 121.664 160.916 121.333 160.916Z" fill="#F3F3F3"/>
</g>
</g>
<g clip-path="url(#clip5)">
<mask id="mask6" mask-type="alpha" maskUnits="userSpaceOnUse" x="294" y="123" width="12" height="13">
<path d="M299.999 123.5C296.778 123.5 294.166 126.112 294.166 129.333C294.166 132.555 296.778 135.167 299.999 135.167C303.221 135.167 305.833 132.555 305.833 129.333C305.833 127.786 305.218 126.303 304.124 125.209C303.03 124.115 301.546 123.5 299.999 123.5ZM297.499 133.658V132.825C297.459 132.092 298.017 131.464 298.749 131.417H301.249C301.984 131.464 302.542 132.095 302.499 132.829V133.662C300.955 134.564 299.044 134.564 297.499 133.662V133.658ZM303.333 133.05V132.796C303.359 131.613 302.431 130.629 301.249 130.583H298.749C297.567 130.629 296.64 131.613 296.666 132.796V133.054C295.121 131.672 294.589 129.48 295.328 127.543C296.068 125.607 297.926 124.327 299.999 124.327C302.072 124.327 303.93 125.607 304.67 127.543C305.41 129.48 304.878 131.672 303.333 133.054V133.05ZM299.999 125.583C298.849 125.583 297.916 126.516 297.916 127.667C297.916 128.817 298.849 129.75 299.999 129.75C301.15 129.75 302.083 128.817 302.083 127.667C302.083 127.114 301.863 126.584 301.472 126.194C301.082 125.803 300.552 125.583 299.999 125.583ZM299.999 128.917C299.309 128.917 298.749 128.357 298.749 127.667C298.749 126.976 299.309 126.417 299.999 126.417C300.69 126.417 301.249 126.976 301.249 127.667C301.249 127.998 301.118 128.316 300.883 128.551C300.649 128.785 300.331 128.917 299.999 128.917Z" fill="white"/>
</mask>
<g mask="url(#mask6)">
<path d="M299.999 123.5C296.778 123.5 294.166 126.112 294.166 129.333C294.166 132.555 296.778 135.167 299.999 135.167C303.221 135.167 305.833 132.555 305.833 129.333C305.833 127.786 305.218 126.303 304.124 125.209C303.03 124.115 301.546 123.5 299.999 123.5ZM297.499 133.658V132.825C297.459 132.092 298.017 131.464 298.749 131.417H301.249C301.984 131.464 302.542 132.095 302.499 132.829V133.662C300.955 134.564 299.044 134.564 297.499 133.662V133.658ZM303.333 133.05V132.796C303.359 131.613 302.431 130.629 301.249 130.583H298.749C297.567 130.629 296.64 131.613 296.666 132.796V133.054C295.121 131.672 294.589 129.48 295.328 127.543C296.068 125.607 297.926 124.327 299.999 124.327C302.072 124.327 303.93 125.607 304.67 127.543C305.41 129.48 304.878 131.672 303.333 133.054V133.05ZM299.999 125.583C298.849 125.583 297.916 126.516 297.916 127.667C297.916 128.817 298.849 129.75 299.999 129.75C301.15 129.75 302.083 128.817 302.083 127.667C302.083 127.114 301.863 126.584 301.472 126.194C301.082 125.803 300.552 125.583 299.999 125.583ZM299.999 128.917C299.309 128.917 298.749 128.357 298.749 127.667C298.749 126.976 299.309 126.417 299.999 126.417C300.69 126.417 301.249 126.976 301.249 127.667C301.249 127.998 301.118 128.316 300.883 128.551C300.649 128.785 300.331 128.917 299.999 128.917Z" fill="#F3F3F3"/>
</g>
</g>
<defs>
<linearGradient id="paint0_linear" x1="199.819" y1="81.3333" x2="168" y2="113.153" gradientUnits="userSpaceOnUse">
<stop stop-color="#408BFC"/>
<stop offset="1" stop-color="#BB8EFF"/>
</linearGradient>
<clipPath id="clip0">
<rect width="32" height="32" fill="white" transform="translate(168 81.3331)"/>
</clipPath>
<clipPath id="clip1">
<rect width="13.3333" height="13.3333" fill="white" transform="translate(302.667 69.3333)"/>
</clipPath>
<clipPath id="clip2">
<rect width="13.3333" height="13.3333" fill="white" transform="translate(92 18.6665)"/>
</clipPath>
<clipPath id="clip3">
<rect width="13.3333" height="13.3333" fill="white" transform="translate(240 154.667)"/>
</clipPath>
<clipPath id="clip4">
<rect width="13.3333" height="13.3333" fill="white" transform="translate(114.666 154.667)"/>
</clipPath>
<clipPath id="clip5">
<rect width="13.3333" height="13.3333" fill="white" transform="translate(293.333 122.667)"/>
</clipPath>
</defs>
</svg>
