<svg width="32" height="32" viewBox="0 0 32 32" fill="none" xmlns="http://www.w3.org/2000/svg">
<g clip-path="url(#clip0)">
<path fill-rule="evenodd" clip-rule="evenodd" d="M11.7322 0C9.96323 0.00130479 8.53163 1.43397 8.53293 3.19935C8.53163 4.96473 9.96454 6.39739 11.7335 6.39869H14.934V3.20065C14.9353 1.43527 13.5024 0.00260958 11.7322 0C11.7335 0 11.7335 0 11.7322 0V0ZM11.7322 8.53333H3.20004C1.43112 8.53464 -0.00179211 9.9673 -0.000484708 11.7327C-0.00309951 13.4981 1.42981 14.9307 3.19873 14.9333H11.7322C13.5011 14.932 14.934 13.4994 14.9327 11.734C14.934 9.9673 13.5011 8.53464 11.7322 8.53333Z" fill="#36C5F0"/>
<path fill-rule="evenodd" clip-rule="evenodd" d="M31.9997 11.7327C32.001 9.9673 30.5681 8.53464 28.7991 8.53333C27.0302 8.53464 25.5973 9.9673 25.5986 11.7327V14.9333H28.7991C30.5681 14.932 32.001 13.4994 31.9997 11.7327ZM23.4662 11.7327V3.19935C23.4675 1.43527 22.0359 0.00260958 20.267 0C18.498 0.00130479 17.0651 1.43397 17.0664 3.19935V11.7327C17.0638 13.4981 18.4967 14.9307 20.2657 14.9333C22.0346 14.932 23.4675 13.4994 23.4662 11.7327Z" fill="#2EB67D"/>
<path fill-rule="evenodd" clip-rule="evenodd" d="M20.2664 32.0002C22.0354 31.9989 23.4683 30.5662 23.467 28.8008C23.4683 27.0354 22.0354 25.6027 20.2664 25.6014H17.0659V28.8008C17.0646 30.5649 18.4975 31.9976 20.2664 32.0002ZM20.2664 23.4655H28.7999C30.5688 23.4642 32.0017 22.0315 32.0004 20.2661C32.003 18.5007 30.5701 17.068 28.8012 17.0654H20.2677C18.4988 17.0667 17.0659 18.4994 17.0672 20.2648C17.0659 22.0315 18.4975 23.4642 20.2664 23.4655Z" fill="#ECB22E"/>
<path fill-rule="evenodd" clip-rule="evenodd" d="M8.93953e-07 20.266C-0.00130651 22.0314 1.43161 23.4641 3.20052 23.4654C4.96944 23.4641 6.40235 22.0314 6.40105 20.266V17.0667H3.20052C1.43161 17.068 -0.00130651 18.5006 8.93953e-07 20.266ZM8.53342 20.266V28.7994C8.53081 30.5648 9.96372 31.9975 11.7326 32.0001C13.5016 31.9988 14.9345 30.5661 14.9332 28.8007V20.2686C14.9358 18.5032 13.5029 17.0706 11.7339 17.068C9.96372 17.068 8.53211 18.5006 8.53342 20.266C8.53342 20.266 8.53342 20.2673 8.53342 20.266Z" fill="#E01E5A"/>
</g>
<defs>
<clipPath id="clip0">
<rect width="32" height="32" fill="white"/>
</clipPath>
</defs>
</svg>
