<svg width="25" height="24" viewBox="0 0 25 24" fill="none" xmlns="http://www.w3.org/2000/svg">
<path fill-rule="evenodd" clip-rule="evenodd" d="M12.3058 6.3621e-06C9.38144 -0.00296587 6.5516 1.03557 4.32341 2.92951C2.09522 4.82345 0.614317 7.44899 0.146093 10.3356C-0.322131 13.2222 0.252927 16.1813 1.76821 18.6824C3.2835 21.1836 5.63997 23.0634 8.41533 23.9849C9.03478 24.0982 9.25385 23.7129 9.25385 23.3881C9.25385 23.0633 9.25385 22.323 9.25385 21.2956C5.81665 22.0434 5.09143 19.6412 5.09143 19.6412C4.86341 18.8966 4.37897 18.257 3.72411 17.8357C2.61363 17.0803 3.81476 17.0803 3.81476 17.0803C4.20403 17.1353 4.57569 17.2781 4.90158 17.498C5.22748 17.7179 5.49906 18.009 5.69578 18.3494C5.86293 18.6525 6.08827 18.9196 6.3589 19.1353C6.62952 19.3511 6.94008 19.5113 7.27277 19.6068C7.60546 19.7022 7.95372 19.731 8.29758 19.6916C8.64143 19.6521 8.97411 19.5451 9.27652 19.3768C9.32393 18.7553 9.59184 18.1713 10.0319 17.7299C7.29729 17.4202 4.42666 16.3626 4.42666 11.6865C4.40788 10.465 4.85958 9.28298 5.68822 8.38528C5.31916 7.32316 5.3623 6.1612 5.80909 5.12937C5.80909 5.12937 6.84403 4.79699 9.19342 6.39094C11.2109 5.83703 13.3403 5.83703 15.3577 6.39094C17.7071 4.79699 18.7345 5.12937 18.7345 5.12937C19.1875 6.15028 19.2414 7.30391 18.8856 8.36261C19.7142 9.26031 20.1659 10.4423 20.1471 11.6638C20.1471 16.3928 17.269 17.4278 14.5268 17.7073C14.8208 18.0029 15.0478 18.3582 15.1925 18.7492C15.3372 19.1402 15.3961 19.5578 15.3653 19.9736C15.3653 21.6204 15.3653 22.95 15.3653 23.3503C15.3653 23.7507 15.5844 24.0604 16.2114 23.9396C18.9551 22.9937 21.2763 21.1086 22.7648 18.6172C24.2533 16.1258 24.8134 13.1884 24.3461 10.3241C23.8788 7.45973 22.4142 4.85271 20.211 2.96358C18.0079 1.07445 15.2079 0.0247763 12.3058 6.3621e-06Z" fill="white"/>
</svg>
