<svg width="368" height="176" viewBox="0 0 368 176" fill="none" xmlns="http://www.w3.org/2000/svg">
<g clip-path="url(#clip0)">
<rect width="368" height="176" fill="#3D3D3D"/>
<path opacity="0.2" d="M272.992 49.3497C264.637 48.2118 271.509 99.0279 256.57 96.9591C241.631 94.8902 243.85 110.351 236.132 110.677C228.732 110.99 221.476 92.3369 212.972 103.892C204.469 115.448 196.89 66.8578 184.261 82.0797C171.632 97.3016 161.641 94.863 150.998 61.6769C140.355 28.4909 140.402 62.2685 131.435 58.363C122.469 54.4576 119.846 95.8165 106.775 82.0797C93.704 68.3429 95.3061 118.627 84.6764 119.839C75.8737 120.843 77.9817 103.692 66.8523 109.801C55.723 115.909 56.4354 96.9591 44.7399 96.9591C34.4182 96.9591 24.0011 114.206 10.0416 111.437C-3.91786 108.668 -14 130.239 -14 130.239V176H381.205V81.0122C381.205 81.0122 380.758 104.379 373.323 103.892C365.887 103.406 357.654 139.644 350.92 124.924C344.185 110.204 332.654 57.063 318.162 47.963C303.669 38.863 308.855 11.9052 298.337 8.21132C287.819 4.51749 281.347 50.4876 272.992 49.3497Z" fill="white"/>
<path d="M-14 130.239C-14 130.239 -3.91786 108.668 10.0416 111.437C24.0011 114.206 34.4182 96.9591 44.7399 96.9591C56.4354 96.9591 55.723 115.909 66.8523 109.801C77.9817 103.692 75.8737 120.843 84.6764 119.839C95.3061 118.627 93.704 68.3429 106.775 82.0797C119.846 95.8165 122.469 54.4576 131.435 58.363C140.402 62.2685 140.355 28.4909 150.998 61.6769C161.641 94.863 171.632 97.3016 184.261 82.0797C196.89 66.8578 204.469 115.448 212.972 103.892C221.476 92.3369 228.732 110.99 236.132 110.677C243.85 110.351 241.631 94.8902 256.57 96.9591C271.509 99.0279 264.637 48.2118 272.992 49.3497C281.347 50.4876 287.819 4.51749 298.337 8.21132C308.855 11.9052 303.669 38.863 318.162 47.963C332.654 57.063 344.185 110.204 350.92 124.924C357.654 139.644 365.887 103.406 373.323 103.892C380.758 104.379 381.205 81.0122 381.205 81.0122" stroke="#BEBEBE" stroke-linecap="round" stroke-linejoin="round" stroke-dasharray="3 3"/>
<path opacity="0.2" d="M267.089 91.8746C271.37 71.7677 276.969 12.8334 298.87 21.385C320.771 29.9366 321.43 106.666 351.564 109.439C380.263 112.081 381.182 102.023 381.204 101.06V100.986C381.204 100.986 381.205 101.011 381.204 101.06V176H-14V89.7945C-14 89.7945 -13.6523 117.066 4.36971 120.764C22.3917 124.462 24.5403 144.898 34.9065 144.898C46.7958 144.898 47.1807 125.54 62.9002 132.711C78.6196 139.883 76.6487 121.75 85.2951 120.764C96.4229 119.495 98.4013 64.2121 121.663 74.0788C144.924 83.9455 140.13 49.3497 151.986 49.3497C163.842 49.3497 153.46 81.7465 175.859 84.2478C198.259 86.7491 188.709 137.866 208.796 137.866C223.545 137.866 229.569 121.965 244.365 126.864C259.16 131.762 264.575 103.683 267.089 91.8746Z" fill="#BB8EFF"/>
<path d="M-14 89.7945C-14 89.7945 -13.6523 117.066 4.36971 120.764C22.3917 124.462 24.5403 144.898 34.9065 144.898C46.7958 144.898 47.1807 125.54 62.9001 132.711C78.6196 139.883 76.6487 121.75 85.295 120.764C96.4229 119.495 98.4013 64.2121 121.663 74.0788C144.924 83.9455 140.13 49.3497 151.986 49.3497C163.842 49.3497 153.46 81.7465 175.859 84.2478C198.259 86.7491 188.709 137.866 208.796 137.866C223.545 137.866 229.569 121.965 244.365 126.864C259.16 131.762 264.575 103.683 267.089 91.8746C271.37 71.7677 276.969 12.8334 298.87 21.385C320.771 29.9366 321.43 106.666 351.564 109.439C381.698 112.213 381.204 100.986 381.204 100.986" stroke="#BB8EFF" stroke-linecap="round" stroke-linejoin="round" stroke-dasharray="3 3"/>
<circle cx="20" cy="20" r="4" fill="#BB8EFF"/>
<rect x="32" y="18" width="40" height="4" fill="#BEBEBE"/>
<circle cx="20" cy="36" r="4" fill="white"/>
<rect x="32" y="34" width="32" height="4" fill="#BEBEBE"/>
</g>
<defs>
<clipPath id="clip0">
<rect width="368" height="176" fill="white"/>
</clipPath>
</defs>
</svg>
